<svg id="Component_52_1" data-name="Component 52 – 1" xmlns="http://www.w3.org/2000/svg" width="30" height="30" viewBox="0 0 30 30">
  <g id="Ellipse_74" data-name="Ellipse 74" fill="rgba(92,201,221,0.25)" stroke="#5cc9dd" stroke-width="1">
    <circle cx="15" cy="15" r="15" stroke="none"/>
    <circle cx="15" cy="15" r="14.5" fill="none"/>
  </g>
  <path id="Icon_awesome-home" data-name="Icon awesome-home" d="M9.856,6.339,3.374,11.677v5.761A.562.562,0,0,0,3.937,18l3.939-.01a.562.562,0,0,0,.56-.562V14.064A.562.562,0,0,1,9,13.5h2.25a.562.562,0,0,1,.562.562v3.362a.562.562,0,0,0,.562.564L16.311,18a.562.562,0,0,0,.562-.562V11.673l-6.48-5.334A.429.429,0,0,0,9.856,6.339ZM20.094,9.967,17.155,7.545V2.675a.422.422,0,0,0-.422-.422H14.764a.422.422,0,0,0-.422.422V5.228L11.2,2.638a1.687,1.687,0,0,0-2.144,0L.152,9.967a.422.422,0,0,0-.056.594l.9,1.09a.422.422,0,0,0,.594.057L9.856,4.9a.429.429,0,0,1,.538,0l8.269,6.811a.422.422,0,0,0,.594-.056l.9-1.09a.422.422,0,0,0-.06-.6Z" transform="translate(4.876 4.873)" fill="#5cc9dd"/>
</svg>
