<svg id="Component_53_1" data-name="Component 53 – 1" xmlns="http://www.w3.org/2000/svg" width="30" height="30" viewBox="0 0 30 30">
  <g id="Ellipse_73" data-name="Ellipse 73" fill="rgba(56,186,153,0.25)" stroke="#38ba99" stroke-width="1">
    <circle cx="15" cy="15" r="15" stroke="none" />
    <circle cx="15" cy="15" r="14.5" fill="none" />
  </g>
  <path id="Icon_material-contact-mail" data-name="Icon material-contact-mail" d="M15.75,8.25V7.5L13.5,9,11.25,7.5v.75l2.25,1.5ZM16.5,4.5H1.5A1.5,1.5,0,0,0,0,6V16.5A1.5,1.5,0,0,0,1.5,18h15a1.5,1.5,0,0,0,1.493-1.5L18,6A1.5,1.5,0,0,0,16.5,4.5ZM6,6.75A2.25,2.25,0,1,1,3.75,9,2.247,2.247,0,0,1,6,6.75Zm4.5,9h-9V15c0-1.5,3-2.325,4.5-2.325S10.5,13.5,10.5,15Zm6-4.5h-6V6.75h6Z" transform="translate(6 3.75)" fill="#38ba99" />
</svg>
