<svg xmlns="http://www.w3.org/2000/svg" width="414" height="280.481" viewBox="0 0 414 280.481">
  <g id="headerPicture" transform="translate(0 0.001)">
    <path id="Path_43" data-name="Path 43" d="M30.925,0A30.925,30.925,0,1,1,0,30.925,30.925,30.925,0,0,1,30.925,0Z" transform="translate(249.608 112.394)" fill="#f16d6e" opacity="0.4"/>
    <rect id="Rectangle_2" data-name="Rectangle 2" width="172.45" height="46.739" transform="translate(108.789 186.11)" fill="#3f3d56"/>
    <path id="Path_1" data-name="Path 1" d="M662.15,259.391l-6.886,3.259,6.094-4.557a34.389,34.389,0,0,0-3.328-4.379l-29.863,7.423,26.975-10.29a34.384,34.384,0,0,0-3.917-2.986l-45.5,7.33a34.1,34.1,0,0,0-7.469,21.282h68.5a34.085,34.085,0,0,0-4.6-17.082Z" transform="translate(-391.956 -189.079)" fill="#f2f2f2"/>
    <path id="Path_2" data-name="Path 2" d="M411.63,122.2a200.792,200.792,0,0,0-242.089,52.039C232.569,160.424,342.305,136.518,411.63,122.2Z" transform="translate(-135.983 -101.971)" fill="#f2f2f2"/>
    <rect id="Rectangle_3" data-name="Rectangle 3" width="410.98" height="0.806" transform="translate(0 279.588)" fill="#2f2e41"/>
    <path id="Path_3" data-name="Path 3" d="M647.567,267.553l-23.315-34.631s35.308,12.326,31.3,34.631Z" transform="translate(-407.48 -180.159)" fill="#3f3d56"/>
    <path id="Path_4" data-name="Path 4" d="M672.083,267.553,695.4,232.922s-35.308,12.326-31.3,34.631Z" transform="translate(-431.081 -180.159)" fill="#38ba99"/>
    <path id="Path_5" data-name="Path 5" d="M528.605,415.742H355.752V157.873H528.605Zm-172.047-.806H527.8V158.678H356.558Z" transform="translate(-247.165 -135.349)" fill="#2f2e41"/>
    <rect id="Rectangle_4" data-name="Rectangle 4" width="172.047" height="0.806" transform="translate(109.192 28.641)" fill="#2f2e41"/>
    <circle id="Ellipse_2" data-name="Ellipse 2" cx="1.612" cy="1.612" r="1.612" transform="translate(112.012 24.135)" fill="#6c63ff"/>
    <circle id="Ellipse_3" data-name="Ellipse 3" cx="1.612" cy="1.612" r="1.612" transform="translate(116.444 24.135)" fill="#6c63ff"/>
    <circle id="Ellipse_4" data-name="Ellipse 4" cx="1.612" cy="1.612" r="1.612" transform="translate(120.876 24.135)" fill="#6c63ff"/>
    <rect id="Rectangle_5" data-name="Rectangle 5" width="7.253" height="4.029" transform="translate(115.236 34.208)" fill="#6c63ff"/>
    <rect id="Rectangle_6" data-name="Rectangle 6" width="35.457" height="4.029" transform="translate(115.236 66.039)" fill="#6c63ff"/>
    <rect id="Rectangle_7" data-name="Rectangle 7" width="35.457" height="4.029" transform="translate(276.807 38.238) rotate(180)" fill="#f2f2f2"/>
    <rect id="Rectangle_8" data-name="Rectangle 8" width="59.632" height="2.418" transform="translate(115.236 72.889)" fill="#f2f2f2"/>
    <rect id="Rectangle_9" data-name="Rectangle 9" width="56.409" height="2.418" transform="translate(115.236 78.127)" fill="#f2f2f2"/>
    <rect id="Rectangle_10" data-name="Rectangle 10" width="41.098" height="2.418" transform="translate(115.236 83.365)" fill="#f2f2f2"/>
    <rect id="Rectangle_11" data-name="Rectangle 11" width="23.369" height="2.418" transform="translate(128.935 155.085)" fill="#f2f2f2"/>
    <rect id="Rectangle_12" data-name="Rectangle 12" width="22.106" height="2.418" transform="translate(128.935 160.323)" fill="#f2f2f2"/>
    <rect id="Rectangle_13" data-name="Rectangle 13" width="16.106" height="2.418" transform="translate(128.935 165.561)" fill="#f2f2f2"/>
    <rect id="Rectangle_14" data-name="Rectangle 14" width="23.369" height="2.418" transform="translate(183.329 155.085)" fill="#f2f2f2"/>
    <rect id="Rectangle_15" data-name="Rectangle 15" width="22.106" height="2.418" transform="translate(183.329 160.323)" fill="#f2f2f2"/>
    <rect id="Rectangle_16" data-name="Rectangle 16" width="16.106" height="2.418" transform="translate(183.329 165.561)" fill="#f2f2f2"/>
    <rect id="Rectangle_17" data-name="Rectangle 17" width="23.369" height="2.418" transform="translate(239.738 155.085)" fill="#f2f2f2"/>
    <rect id="Rectangle_18" data-name="Rectangle 18" width="22.106" height="2.418" transform="translate(239.738 160.323)" fill="#f2f2f2"/>
    <rect id="Rectangle_19" data-name="Rectangle 19" width="16.106" height="2.418" transform="translate(239.738 165.561)" fill="#f2f2f2"/>
    <rect id="Rectangle_20" data-name="Rectangle 20" width="35.457" height="4.029" transform="translate(165.198 246.548)" fill="#6c63ff"/>
    <rect id="Rectangle_21" data-name="Rectangle 21" width="59.632" height="2.418" transform="translate(165.198 253.398)" fill="#f2f2f2"/>
    <rect id="Rectangle_22" data-name="Rectangle 22" width="56.409" height="2.418" transform="translate(165.198 258.636)" fill="#f2f2f2"/>
    <rect id="Rectangle_23" data-name="Rectangle 23" width="41.098" height="2.418" transform="translate(165.198 263.874)" fill="#f2f2f2"/>
    <rect id="Rectangle_24" data-name="Rectangle 24" width="140.217" height="0.806" transform="translate(125.913 109.555)" fill="#6c63ff" opacity="0.3"/>
    <rect id="Rectangle_25" data-name="Rectangle 25" width="29.816" height="26.593" transform="translate(125.711 123.657)" fill="#6c63ff" opacity="0.3"/>
    <rect id="Rectangle_26" data-name="Rectangle 26" width="29.816" height="26.593" transform="translate(180.106 123.657)" fill="#3f3d56"/>
    <rect id="Rectangle_27" data-name="Rectangle 27" width="29.816" height="26.593" transform="translate(236.515 123.657)" fill="#3f3d56"/>
    <path id="Path_6" data-name="Path 6" d="M560.028,454.52l-.393-.008c.008-.436.254-10.7,4.3-13.54l.226.322C560.278,444.017,560.03,454.415,560.028,454.52Z" transform="translate(-368.899 -304.381)" fill="#6c63ff"/>
    <circle id="Ellipse_5" data-name="Ellipse 5" cx="1.967" cy="1.967" r="1.967" transform="translate(195.145 132.527)" fill="#6c63ff"/>
    <path id="Path_7" data-name="Path 7" d="M569.789,450.044a6.124,6.124,0,0,1-3.16.136,5.58,5.58,0,0,1,5.738-1.968A6.124,6.124,0,0,1,569.789,450.044Z" transform="translate(-373.075 -308.606)" fill="#6c63ff"/>
    <path id="Path_8" data-name="Path 8" d="M700.028,454.52l-.393-.008c.008-.436.254-10.7,4.3-13.54l.226.322C700.278,444.017,700.03,454.415,700.028,454.52Z" transform="translate(-452.49 -304.381)" fill="#6c63ff"/>
    <circle id="Ellipse_6" data-name="Ellipse 6" cx="1.967" cy="1.967" r="1.967" transform="translate(251.554 132.527)" fill="#6c63ff"/>
    <path id="Path_9" data-name="Path 9" d="M709.789,450.044a6.123,6.123,0,0,1-3.159.136,5.58,5.58,0,0,1,5.738-1.968A6.124,6.124,0,0,1,709.789,450.044Z" transform="translate(-456.666 -308.606)" fill="#6c63ff"/>
    <rect id="Rectangle_28" data-name="Rectangle 28" width="35.457" height="4.029" transform="translate(115.236 201.018)" fill="#6c63ff"/>
    <rect id="Rectangle_29" data-name="Rectangle 29" width="59.632" height="2.418" transform="translate(115.236 207.868)" fill="#f2f2f2"/>
    <rect id="Rectangle_30" data-name="Rectangle 30" width="56.409" height="2.418" transform="translate(115.236 213.106)" fill="#f2f2f2"/>
    <rect id="Rectangle_31" data-name="Rectangle 31" width="41.098" height="2.418" transform="translate(115.236 218.344)" fill="#f2f2f2"/>
    <circle id="Ellipse_7" data-name="Ellipse 7" cx="12.59" cy="12.59" r="12.59" transform="translate(233.898 193.988)" fill="#6c63ff" opacity="0.4"/>
    <circle id="Ellipse_8" data-name="Ellipse 8" cx="8.832" cy="8.832" r="8.832" transform="translate(214.354 203.759)" fill="#6c63ff" opacity="0.4"/>
    <circle id="Ellipse_9" data-name="Ellipse 9" cx="31.831" cy="31.831" r="31.831" transform="translate(35.659 202.831)" fill="#2f2e41"/>
    <rect id="Rectangle_32" data-name="Rectangle 32" width="9.67" height="17.326" transform="translate(52.984 259.643)" fill="#2f2e41"/>
    <rect id="Rectangle_33" data-name="Rectangle 33" width="9.67" height="17.326" transform="translate(72.324 259.643)" fill="#2f2e41"/>
    <ellipse id="Ellipse_10" data-name="Ellipse 10" cx="8.058" cy="3.022" rx="8.058" ry="3.022" transform="translate(52.984 274.148)" fill="#2f2e41"/>
    <ellipse id="Ellipse_11" data-name="Ellipse 11" cx="8.058" cy="3.022" rx="8.058" ry="3.022" transform="translate(72.324 273.745)" fill="#2f2e41"/>
    <circle id="Ellipse_12" data-name="Ellipse 12" cx="10.879" cy="10.879" r="10.879" transform="translate(57.416 215.725)" fill="#fff"/>
    <circle id="Ellipse_13" data-name="Ellipse 13" cx="3.626" cy="3.626" r="3.626" transform="translate(64.669 218.142)" fill="#3f3d56"/>
    <path id="Path_10" data-name="Path 10" d="M176.422,571.477c-2.57-11.51,5.646-23.141,18.351-25.978s25.088,4.194,27.658,15.7-5.85,15.756-18.555,18.593S178.992,582.987,176.422,571.477Z" transform="translate(-139.81 -366.416)" fill="#efc01a"/>
    <ellipse id="Ellipse_14" data-name="Ellipse 14" cx="15.915" cy="4.996" rx="15.915" ry="4.996" transform="translate(80.336 211.768) rotate(-65.077)" fill="#2f2e41"/>
    <ellipse id="Ellipse_15" data-name="Ellipse 15" cx="4.996" cy="15.915" rx="4.996" ry="15.915" transform="translate(21.29 197.381) rotate(-27.893)" fill="#2f2e41"/>
    <ellipse id="Ellipse_16" data-name="Ellipse 16" cx="4.996" cy="15.915" rx="4.996" ry="15.915" transform="translate(320.01 197.938) rotate(-21.078)" fill="#2f2e41"/>
    <circle id="Ellipse_17" data-name="Ellipse 17" cx="31.831" cy="31.831" r="31.831" transform="translate(328.054 203.114)" fill="#2f2e41"/>
    <rect id="Rectangle_34" data-name="Rectangle 34" width="9.67" height="17.326" transform="translate(374.508 277.209) rotate(179.84)" fill="#2f2e41"/>
    <rect id="Rectangle_35" data-name="Rectangle 35" width="9.67" height="17.326" transform="translate(355.167 277.263) rotate(179.84)" fill="#2f2e41"/>
    <ellipse id="Ellipse_18" data-name="Ellipse 18" cx="8.058" cy="3.022" rx="8.058" ry="3.022" transform="translate(358.385 274.437) rotate(-0.16)" fill="#2f2e41"/>
    <ellipse id="Ellipse_19" data-name="Ellipse 19" cx="8.058" cy="3.022" rx="8.058" ry="3.022" transform="translate(339.044 274.088) rotate(-0.16)" fill="#2f2e41"/>
    <circle id="Ellipse_20" data-name="Ellipse 20" cx="10.879" cy="10.879" r="10.879" transform="translate(348.178 216.01)" fill="#fff"/>
    <circle id="Ellipse_21" data-name="Ellipse 21" cx="3.626" cy="3.626" r="3.626" transform="translate(355.43 223.262)" fill="#3f3d56"/>
    <path id="Path_11" data-name="Path 11" d="M986.978,572.064c2.538-11.518-5.71-23.125-18.423-25.927s-25.076,4.265-27.614,15.782,5.894,15.739,18.607,18.541S984.44,583.582,986.978,572.064Z" transform="translate(-596.299 -366.807)" fill="#5cc9dd"/>
    <ellipse id="Ellipse_22" data-name="Ellipse 22" cx="15.915" cy="4.996" rx="15.915" ry="4.996" transform="translate(379.18 222.425) rotate(-25.535)" fill="#2f2e41"/>
    <path id="Path_12" data-name="Path 12" d="M967.68,707.875c.009,3.115-8,9.29-16.9,9.315s-17.271-8.723-17.28-11.838,8.347.581,17.248.556S967.672,704.76,967.68,707.875Z" transform="translate(-592.128 -461.491)" fill="#fff"/>
    <circle id="Ellipse_23" data-name="Ellipse 23" cx="44.421" cy="44.421" r="44.421" transform="translate(325.158 144.428)" fill="#5cc9dd" opacity="0.4"/>
    <circle id="Ellipse_24" data-name="Ellipse 24" cx="31.831" cy="31.831" r="31.831" transform="translate(44.887 108.623)" fill="#2f2e41"/>
    <rect id="Rectangle_36" data-name="Rectangle 36" width="9.67" height="17.326" transform="translate(57.996 162.452) rotate(10.261)" fill="#2f2e41"/>
    <rect id="Rectangle_37" data-name="Rectangle 37" width="9.67" height="17.326" transform="translate(77.027 165.897) rotate(10.261)" fill="#2f2e41"/>
    <ellipse id="Ellipse_25" data-name="Ellipse 25" cx="3.022" cy="8.058" rx="3.022" ry="8.058" transform="matrix(0.646, -0.763, 0.763, 0.646, 72.255, 183.047)" fill="#2f2e41"/>
    <ellipse id="Ellipse_26" data-name="Ellipse 26" cx="3.022" cy="8.058" rx="3.022" ry="8.058" transform="matrix(0.646, -0.763, 0.763, 0.646, 53.62, 179.674)" fill="#2f2e41"/>
    <circle id="Ellipse_27" data-name="Ellipse 27" cx="10.879" cy="10.879" r="10.879" transform="translate(68.068 121.789)" fill="#fff"/>
    <circle id="Ellipse_28" data-name="Ellipse 28" cx="3.626" cy="3.626" r="3.626" transform="translate(79.792 125.142)" fill="#3f3d56"/>
    <path id="Path_13" data-name="Path 13" d="M214.313,331.548c-.479-11.784,9.678-21.766,22.685-22.294s23.94,8.6,24.418,20.381-8.563,14.462-21.57,14.99S214.792,343.332,214.313,331.548Z" transform="translate(-162.705 -225.723)" fill="#38ba99"/>
    <ellipse id="Ellipse_29" data-name="Ellipse 29" cx="15.915" cy="4.996" rx="15.915" ry="4.996" transform="matrix(0.975, -0.223, 0.223, 0.975, 89.48, 133.341)" fill="#2f2e41"/>
    <ellipse id="Ellipse_30" data-name="Ellipse 30" cx="15.915" cy="4.996" rx="15.915" ry="4.996" transform="matrix(0.975, -0.223, 0.223, 0.975, 26.997, 143.731)" fill="#2f2e41"/>
    <path id="Path_14" data-name="Path 14" d="M254.786,476.09a7.253,7.253,0,0,0,14.273,2.584c.714-3.941-2.334-5.336-6.275-6.05S255.5,472.149,254.786,476.09Z" transform="translate(-186.81 -323.092)" fill="#fff"/>
    <rect id="Rectangle_38" data-name="Rectangle 38" width="29.816" height="26.593" transform="translate(123.107 106.035) rotate(16.689)" fill="#3f3d56"/>
    <path id="Path_15" data-name="Path 15" d="M398.565,418.379l-.375-.12c.133-.415,3.317-10.178,8-11.736l.124.373C401.82,408.391,398.6,418.279,398.565,418.379Z" transform="translate(-272.504 -283.812)" fill="#6c63ff"/>
    <circle id="Ellipse_31" data-name="Ellipse 31" cx="1.967" cy="1.967" r="1.967" transform="translate(134.317 119.332)" fill="#6c63ff"/>
    <path id="Path_16" data-name="Path 16" d="M414.054,416.587a6.123,6.123,0,0,1-3.066-.777,5.581,5.581,0,0,1,6.061-.237A6.123,6.123,0,0,1,414.054,416.587Z" transform="translate(-280.145 -288.75)" fill="#6c63ff"/>
  </g>
</svg>
