<svg xmlns="http://www.w3.org/2000/svg" width="896" height="793.312"><defs><filter id="a" x="122" y="3.053" width="744.072" height="790.258" filterUnits="userSpaceOnUse"><feOffset dx="60" dy="60"/><feGaussianBlur stdDeviation="30" result="blur"/><feFlood flood-color="#38ba99"/><feComposite operator="in" in2="blur"/><feComposite in="SourceGraphic"/></filter><filter id="b" x="122" y="3.053" width="744.072" height="790.258" filterUnits="userSpaceOnUse"><feOffset dx="60" dy="60"/><feGaussianBlur stdDeviation="30" result="blur-2"/><feFlood flood-color="#38ba99" result="color"/><feComposite operator="out" in="SourceGraphic" in2="blur-2"/><feComposite operator="in" in="color"/><feComposite operator="in" in2="SourceGraphic"/></filter></defs><g data-type="innerShadowGroup"><g filter="url(#a)"><path data-name="Path 92" d="M162.007 477.33c.463-2.383 0-144.365 0-144.365s.839-38.323 0-42.86c-5.291-28.6-24.8-105.82 11.34-139.948 1.454-1.373 106.466-97.391 108.07-99.017 40.17-40.685 181.127 0 240.591 0 88.833 0 163.54 63.079 187.718 163.971s-23.921 176.987-91.006 239.6-141.4 181.971-277.726 188.211-199.142-61.988-178.987-165.592z" fill="#38ba99" opacity=".25"/></g><g filter="url(#b)"><path data-name="Path 92" d="M162.007 477.33c.463-2.383 0-144.365 0-144.365s.839-38.323 0-42.86c-5.291-28.6-24.8-105.82 11.34-139.948 1.454-1.373 106.466-97.391 108.07-99.017 40.17-40.685 181.127 0 240.591 0 88.833 0 163.54 63.079 187.718 163.971s-23.921 176.987-91.006 239.6-141.4 181.971-277.726 188.211-199.142-61.988-178.987-165.592z" fill="#fff" opacity=".25"/></g></g><g data-name="Group 44"><path data-name="Path 122" d="M516.339 32.919c7.686 16.355-8.6 20.988-27.255 29.754s-32.616 18.346-40.3 1.991-13.922-48.818 12.47-61.219c27.299-12.828 47.4 13.119 55.085 29.474z" fill="#2f2e41"/><circle data-name="Ellipse 63" cx="25.114" cy="25.114" r="25.114" transform="translate(453.163 14.855)" fill="#ffb8b8"/><path data-name="Path 123" d="M602.696 151.347a149.749 149.749 0 00-2.618-3.333q-1.7-2.117-3.426-4.1c-13.017-15.021-26.861-24.479-42.107-25.491h-.02l-.225-.02-30.379 29.612-10.327 10.058.225.552 5.572 13.876h97.64a240.13 240.13 0 00-14.335-21.154z" fill="#2f2e41"/><path data-name="Path 124" d="M450.968 50.08l8.99-4.224-1.248-12.969 6.011 10.733 4.3-2.019-.73-7.565 3.507 6.261 31.927-15a26.585 26.585 0 00-35.368-12.755l-4.627 2.174a26.585 26.585 0 00-12.755 35.368z" fill="#2f2e41"/><path data-name="Path 125" d="M659.037 505.94H134.652a16.891 16.891 0 01-16.871-16.871V173.977a12.374 12.374 0 0112.36-12.36h533.193a12.588 12.588 0 0112.574 12.574v314.878a16.891 16.891 0 01-16.871 16.871z" fill="#f2f2f2"/><path data-name="Path 126" d="M151.013 489.069h491.664a16.36 16.36 0 0016.36-16.36V205.272a16.36 16.36 0 00-16.36-16.36H151.013a16.36 16.36 0 00-16.36 16.36v267.436a16.36 16.36 0 0016.36 16.361z" fill="#fff"/><path data-name="Path 127" d="M675.673 173.012H117.544v-8.59a16.947 16.947 0 0116.933-16.922h524.264a16.947 16.947 0 0116.933 16.922z" fill="#38ba99"/><circle data-name="Ellipse 64" cx="4.38" cy="4.38" r="4.38" transform="translate(143.937 155.902)" fill="#fff"/><circle data-name="Ellipse 65" cx="4.38" cy="4.38" r="4.38" transform="translate(160.562 155.902)" fill="#fff"/><circle data-name="Ellipse 66" cx="4.38" cy="4.38" r="4.38" transform="translate(177.187 155.902)" fill="#fff"/><g fill="#ccc"><path data-name="Path 128" d="M412.186 431.07h-43.968a9.725 9.725 0 01-9.714-9.714v-43.968a9.725 9.725 0 019.714-9.714h43.968a9.725 9.725 0 019.714 9.714v43.968a9.725 9.725 0 01-9.714 9.714zm-43.968-61.351a7.677 7.677 0 00-7.669 7.669v43.968a7.678 7.678 0 007.669 7.669h43.968a7.678 7.678 0 007.669-7.669v-43.968a7.677 7.677 0 00-7.669-7.669z"/><path data-name="Path 129" d="M403.494 418.806h-26.585a3.071 3.071 0 01-3.068-3.068v-32.72a3.071 3.071 0 013.068-3.068h19.264a3.074 3.074 0 011.922.677l7.321 5.883a3.051 3.051 0 011.146 2.391v26.837a3.071 3.071 0 01-3.067 3.068zm-26.585-36.811a1.024 1.024 0 00-1.023 1.022v32.72a1.024 1.024 0 001.023 1.022h26.585a1.024 1.024 0 001.023-1.022v-26.841a1.017 1.017 0 00-.382-.8l-7.322-5.884a1.024 1.024 0 00-.64-.225z"/><path data-name="Path 130" d="M398.382 394.261h-16.357a1.023 1.023 0 110-2.045h16.36a1.023 1.023 0 110 2.045z"/><path data-name="Path 131" d="M398.382 400.396h-16.357a1.023 1.023 0 110-2.045h16.36a1.023 1.023 0 110 2.045z"/><path data-name="Path 132" d="M398.382 406.531h-16.357a1.023 1.023 0 110-2.045h16.36a1.023 1.023 0 110 2.045z"/></g><g fill="#ccc"><path data-name="Path 133" d="M516.482 431.07h-43.968a9.725 9.725 0 01-9.714-9.714v-43.968a9.725 9.725 0 019.714-9.714h43.968a9.725 9.725 0 019.714 9.714v43.968a9.725 9.725 0 01-9.714 9.714zm-43.968-61.351a7.677 7.677 0 00-7.669 7.669v43.968a7.677 7.677 0 007.669 7.669h43.968a7.678 7.678 0 007.669-7.669v-43.968a7.677 7.677 0 00-7.669-7.669z"/><path data-name="Path 134" d="M508.813 410.621h-28.63a3.071 3.071 0 01-3.067-3.067v-16.36a3.071 3.071 0 013.067-3.067h28.63a3.071 3.071 0 013.068 3.068v16.36a3.071 3.071 0 01-3.067 3.067zm-28.63-20.45a1.024 1.024 0 00-1.022 1.022v16.36a1.024 1.024 0 001.022 1.023h28.63a1.024 1.024 0 001.023-1.023v-16.36a1.023 1.023 0 00-1.022-1.022z"/><path data-name="Path 135" d="M494.498 402.071a3.07 3.07 0 01-1.625-.463l-15.277-9.548a1.023 1.023 0 111.084-1.734l15.277 9.547a1.028 1.028 0 001.083 0l15.276-9.547a1.023 1.023 0 111.084 1.734l-15.276 9.548a3.071 3.071 0 01-1.626.463z"/></g><g transform="translate(254.207 367.675)" fill="#ccc"><path data-name="Path 136" d="M53.682 63.395H9.714A9.725 9.725 0 010 53.681V9.713A9.725 9.725 0 019.714-.001h43.968a9.725 9.725 0 019.714 9.714v43.968a9.725 9.725 0 01-9.714 9.714zM9.714 2.044a7.677 7.677 0 00-7.669 7.669v43.968a7.677 7.677 0 007.669 7.669h43.968a7.678 7.678 0 007.669-7.669V9.713a7.677 7.677 0 00-7.669-7.669z"/><path data-name="Path 137" d="M46.013 42.946h-28.63a3.071 3.071 0 01-3.068-3.067v-16.36a3.071 3.071 0 013.068-3.067h28.63a3.071 3.071 0 013.068 3.068v16.36a3.071 3.071 0 01-3.068 3.066zm-28.63-20.45a1.024 1.024 0 00-1.023 1.022v16.36a1.024 1.024 0 001.023 1.023h28.63a1.024 1.024 0 001.023-1.023v-16.36a1.024 1.024 0 00-1.023-1.022z"/><path data-name="Path 138" d="M41.475 42.946H20.898a2.045 2.045 0 01-1.771-3.068l6.2-10.736a2.045 2.045 0 013.542 0l4 6.934 2.319-4.017a2.045 2.045 0 013.542 0l4.514 7.82a2.045 2.045 0 01-1.771 3.068zm0-2.045l-4.514-7.82-3.2 5.551a1.023 1.023 0 01-.886.511 1.023 1.023 0 01-.886-.511l-4.888-8.468-6.2 10.736z"/><circle data-name="Ellipse 67" cx="2.045" cy="2.045" r="2.045" transform="translate(40.9 24.54)"/></g><path data-name="Path 139" d="M786.134 662.743h-12.532l-5.963-48.353h18.5z" fill="#ffb8b8"/><path data-name="Path 140" d="M789.331 674.894h-40.42v-.511a15.733 15.733 0 0115.733-15.733h24.688z" fill="#2f2e41"/><path data-name="Path 141" d="M837.26 662.743h-12.532l-5.963-48.353h18.5z" fill="#ffb8b8"/><path data-name="Path 142" d="M840.457 674.894h-40.421v-.511a15.733 15.733 0 0115.733-15.733h24.688z" fill="#2f2e41"/><path data-name="Path 143" d="M833.502 641.778l-11.61-3.532a4.6 4.6 0 01-3.237-3.919l-10.824-102.582a.49.49 0 00-.489-.457.48.48 0 00-.522.418l-18.13 99.388a4.6 4.6 0 01-5.455 3.681l-14.838-3.057a4.618 4.618 0 01-3.662-4.818L775.763 464l74.785-8.069-11.114 181.728a4.6 4.6 0 01-5.932 4.122z" fill="#2f2e41"/><circle data-name="Ellipse 68" cx="25.114" cy="25.114" r="25.114" transform="translate(808.317 271.913)" fill="#ffb8b8"/><path data-name="Path 144" d="M775.647 464.958l16.215-102.1a38.71 38.71 0 0149.086-31.084 38.593 38.593 0 0127.2 44.236l-16.965 91.179z" fill="#38ba99"/><path data-name="Path 145" d="M840.364 483.226a10.282 10.282 0 001.786-15.665l16.766-32.466-18.881 2.015-13.026 30.521a10.338 10.338 0 0013.355 15.595z" fill="#ffb8b8"/><path data-name="Path 146" d="M843.954 461.834a4.607 4.607 0 01-2.481-1.177l-6.415-5.927a4.616 4.616 0 01-1.116-5.168l12.82-30.387-1.818-60.042a14.823 14.823 0 0129.374 4.007l3.109 37.743a47.418 47.418 0 01-9.139 32.1l-19.992 27.027a4.605 4.605 0 01-3.267 1.844 4.555 4.555 0 01-1.075-.02z" fill="#38ba99"/><path data-name="Path 147" d="M688.807 283.344a10.282 10.282 0 0013.729 7.753l23.36 28.1 5.506-18.172-23.027-23.9a10.338 10.338 0 00-19.568 6.218z" fill="#ffb8b8"/><path data-name="Path 148" d="M707.106 294.99a4.61 4.61 0 012.051-1.826l7.959-3.6a4.616 4.616 0 015.194.987l22.981 23.655 56 21.735a14.823 14.823 0 01-15.142 25.487l-35.969-11.853a47.417 47.417 0 01-26-20.933l-17.089-28.945a4.606 4.606 0 01-.424-3.728 4.555 4.555 0 01.441-.979z" fill="#38ba99"/><path data-name="Path 149" d="M853.801 384.109l-1.023 32.72-18.836 32.728 15.728-36.476z" opacity=".1"/><path data-name="Path 150" d="M830.554 301.746a6.567 6.567 0 01-7.189-4.808 9.984 9.984 0 00-7.107-7.437c-4.607-1.053-10.237 1.116-13.613-2.375a6.786 6.786 0 01-1.611-5.974c.622-3.392 3.048-5.954 5.688-8a34.829 34.829 0 0119.291-7.21 69.212 69.212 0 0110.86.54 48.065 48.065 0 0111.108 2.03 26.152 26.152 0 0116.362 19.1 30.194 30.194 0 01-6.193 24.674 32.419 32.419 0 01-12.434 9.467 4.851 4.851 0 01-3.687.187c-3.024-1.2-2.53-4.948-1.151-7.446 1.475-2.674 3.746-5.262 2.559-8.516a6.446 6.446 0 00-3.2-3.442c-3.006-1.533-6.368-1.17-9.6-.8z" fill="#2f2e41"/><path data-name="Path 151" d="M680.415 315.928H369.571a16.89 16.89 0 01-16.869-16.871v-66.468a16.891 16.891 0 0116.872-16.872h310.841a16.891 16.891 0 0116.872 16.872v66.463a16.891 16.891 0 01-16.872 16.876z" fill="#fff"/><g transform="translate(352.188 215.211)"><path data-name="Path 152" d="M328.227 101.229H17.383A17.4 17.4 0 01.003 83.846V17.383A17.4 17.4 0 0117.386 0h310.841a17.4 17.4 0 0117.383 17.383v66.463a17.4 17.4 0 01-17.383 17.383zM17.383 2.045A15.355 15.355 0 002.045 17.383v66.463a15.355 15.355 0 0015.338 15.338h310.844a15.355 15.355 0 0015.338-15.338V17.383a15.355 15.355 0 00-15.338-15.338z" fill="#3f3d56"/><path data-name="Path 153" d="M290.394 84.358H55.216a16.891 16.891 0 01-16.869-16.872v-34.77a16.891 16.891 0 0116.872-16.872h235.175a16.89 16.89 0 0116.871 16.872v34.77a16.891 16.891 0 01-16.871 16.872z" fill="#f2f2f2"/><circle data-name="Ellipse 69" cx="20.177" cy="20.177" r="20.177" transform="translate(85.649 25.266)" fill="#ff6584"/><path data-name="Path 154" d="M275.779 82.322l-28.48-23.886-27.987-23.473a4.091 4.091 0 00-5.269.01l-27.9 23.581-6.814 5.76-10.272-8.618-31.225-26.186a4.09 4.09 0 00-5.268.01l-31.123 26.308-31.609 26.721a1.023 1.023 0 00.662 1.8l64.814-.125 20.516-.04-.2.17 61.154-.118 58.352-.112a1.022 1.022 0 00.655-1.806z" fill="#3f3d56"/></g><path data-name="Path 155" d="M894.977 676.365H698.654a1.023 1.023 0 010-2.045h196.323a1.023 1.023 0 010 2.045z" fill="#ccc"/><path data-name="Path 156" d="M617.656 134.883a11.473 11.473 0 00-7.413-5.215 10.532 10.532 0 00-1.7-.215L530.64 59.795a9.218 9.218 0 00-5.757-2.751 7.837 7.837 0 00-1.3-.041 9.259 9.259 0 00-6.094 15.828l29.827 26 48.979 42.69a12.18 12.18 0 00.358 2.382 11.52 11.52 0 009.888 8.558 11.341 11.341 0 006.186-1.022 11.665 11.665 0 003.967-3.037c.112-.133.215-.256.317-.4a11.547 11.547 0 00.644-13.129z" fill="#ffb8b8"/><path data-name="Path 157" d="M484.402 202.011l-.726-29.51-.614-24.489-.419-17.137-.828-33.406a9.249 9.249 0 00-16.064-5.368 7.1 7.1 0 00-.767.982 9.138 9.138 0 00-1.6 6.186l1.821 48.743.91 24.489 1.165 31.238a12.318 12.318 0 00-.91 1.442 11.562 11.562 0 1018.027-3.17z" fill="#ffb8b8"/><path data-name="Path 158" d="M554.547 118.42l-7.23-19.581-11.7-31.718a16.366 16.366 0 00-10.174-9.9 12.08 12.08 0 00-.562-.174 16.344 16.344 0 00-13.538 1.861l-39.4 24.99a16.455 16.455 0 00-5.389 22.24 282.6 282.6 0 0016.084 24.735c4.591 6.247 13.139 6.912 14.622 17.137h29.049l29.408-26.4z" fill="#ccc"/><circle data-name="Ellipse 70" cx="23.693" cy="23.693" r="23.693" transform="translate(79.749 310.344)" fill="#a0616a"/><path data-name="Path 159" d="M161.609 317.728q.35.279.679.591a10.614 10.614 0 01-.426 15.832 9.932 9.932 0 01-.832.627l1.6 54.137a8.243 8.243 0 01-5.67 8.044l-.1.021-43.957 4.681a9.1 9.1 0 11-1.761-18.112l31.334-2.759 5.419-46.883a10.1 10.1 0 01-.993-1.012 10.614 10.614 0 0114.7-15.167z" fill="#a0616a"/><path data-name="Path 160" d="M142.465 663.789h11.827l5.626-45.617h-17.455z" fill="#a0616a"/><path data-name="Path 161" d="M139.448 659.928h23.292a14.842 14.842 0 0114.843 14.842v.482h-38.134z" fill="#2f2e41"/><path data-name="Path 162" d="M24.915 647.438l10.162 6.05 28.172-36.316-15-8.93z" fill="#a0616a"/><path data-name="Path 163" d="M24.298 642.577l20.012 11.911a14.842 14.842 0 015.159 20.347l-.247.414-32.764-19.504z" fill="#2f2e41"/><path data-name="Path 164" d="M157.083 647.677H143.84a4.333 4.333 0 01-4.317-3.882l-13.351-125.5a1.447 1.447 0 00-2.758-.443l-24.082 53.333-42.642 69.534a4.361 4.361 0 01-5.449 1.7l-17.035-7.495a4.342 4.342 0 01-1.978-6.2l39.2-65.637 12.022-55.3c-3.781-23.983 12.429-59.639 12.593-60l.08-.174 44.651-17.452.224.274c17.605 57.788 28.334 119.976 20.412 213.265a4.371 4.371 0 01-4.327 3.977z" fill="#2f2e41"/><path data-name="Path 165" d="M94.32 453.458l-.208-.437c-.1-.209-10.028-21.149-17.681-43.53a33.013 33.013 0 012.289-26.456 33.373 33.373 0 0121.281-16.365 33.412 33.412 0 0138.779 20.011c6.071 15.181 4.136 31.385 2.315 44.129l-.036.255-.232.111z" fill="#3f3d56"/><path data-name="Path 166" d="M132.17 320.653H94.548v-16.4c8.258-3.281 16.338-6.071 21.223 0a16.4 16.4 0 0116.4 16.4z" fill="#2f2e41"/><path data-name="Path 167" d="M92.465 301.36c-22.491 0-28.787 28.192-28.787 44.1 0 8.87 4.011 12.042 10.315 13.116l2.226-11.872 5.214 12.383c1.771.009 3.631-.025 5.559-.061l1.768-3.64 3.942 3.575c15.789.024 28.549 2.325 28.549-13.5 0-15.909-5.521-44.101-28.786-44.101z" fill="#2f2e41"/><path data-name="Path 168" d="M197.345 676.365H1.023a1.023 1.023 0 110-2.045h196.322a1.023 1.023 0 110 2.045z" fill="#ccc"/><path data-name="Path 169" d="M201.036 339.958h-43.968a9.725 9.725 0 01-9.714-9.714v-43.968a9.725 9.725 0 019.714-9.714h43.968a9.725 9.725 0 019.714 9.714v43.968a9.725 9.725 0 01-9.714 9.714z" fill="#fff"/><path data-name="Path 170" d="M201.037 339.958h-43.968a9.725 9.725 0 01-9.714-9.714v-43.968a9.725 9.725 0 019.714-9.714h43.968a9.725 9.725 0 019.714 9.714v43.968a9.725 9.725 0 01-9.714 9.714zm-43.968-61.351a7.677 7.677 0 00-7.669 7.669v43.968a7.677 7.677 0 007.669 7.669h43.968a7.677 7.677 0 007.669-7.669v-43.968a7.677 7.677 0 00-7.669-7.669z" fill="#3f3d56"/><path data-name="Path 171" d="M193.368 322.064h-28.63a3.071 3.071 0 01-3.067-3.068v-21.473a3.071 3.071 0 013.067-3.068h8.06a3.048 3.048 0 012.613 1.459l2.248 3.653h15.71a3.071 3.071 0 013.068 3.068v16.36a3.071 3.071 0 01-3.068 3.068z" fill="#38ba99"/><path data-name="Path 172" d="M192.437 332.913q.215.393.4.808a10.614 10.614 0 01-6.54 14.428 9.934 9.934 0 01-1.01.255l-19.53 50.515a8.243 8.243 0 01-8.347 5.214l-.1-.018-42.329-12.743a9.1 9.1 0 115.405-17.376l29.95 9.616 23.191-41.107a10.1 10.1 0 01-.523-1.319 10.614 10.614 0 0119.435-8.273z" fill="#a0616a"/></g></svg>