<svg id="Component_33_1" data-name="Component 33 – 1" xmlns="http://www.w3.org/2000/svg" width="410.165" height="385.365" viewBox="0 0 410.165 385.365">
  <path id="Path_119" data-name="Path 119" d="M5.822,261.1c.269-1.4,0-84.842,0-84.842s.488-22.522,0-25.188c-3.077-16.81-14.425-62.19,6.6-82.247.846-.807,61.922-57.236,62.855-58.192,23.364-23.91,105.346,0,139.931,0,51.666,0,95.117,37.071,109.179,96.365S310.47,211.006,271.453,247.8s-82.24,106.943-161.529,110.61S-5.9,321.983,5.822,261.1Z" transform="matrix(-0.174, 0.985, -0.985, -0.174, 410.165, 62.278)" fill="#38ba99" opacity="0.25"/>
  <g id="Group_42" data-name="Group 42" transform="translate(32 36.84)">
    <path id="Path_461" data-name="Path 461" d="M454.389,685.429a10.787,10.787,0,0,0,10.255,2.589c4.582-1.3,7.692-5.435,10.452-9.317l8.167-11.48-6.883,1.262c-4.95.907-10.022,1.86-14.332,4.457s-7.763,7.233-7.49,12.258" transform="translate(-351.24 -415.268)" fill="#e6e6e6"/>
    <path id="Path_462" data-name="Path 462" d="M441.592,712.563a55.773,55.773,0,0,1,4.552-12.038,20.2,20.2,0,0,1,7.891-8.071,17.624,17.624,0,0,1,5.8-1.888c.529-.075.615.749.089.824a16.753,16.753,0,0,0-9.319,4.583,26.823,26.823,0,0,0-6.034,9.972c-.828,2.212-1.5,4.479-2.16,6.745a.427.427,0,0,1-.473.347.417.417,0,0,1-.347-.473Z" transform="translate(-344.84 -426.937)" fill="#f2f2f2"/>
    <path id="Path_93" data-name="Path 93" d="M703.121,402.9a5.519,5.519,0,0,1,6.8,5.035l18.882,5.308-7.7,6.673-16.75-6.064a5.549,5.549,0,0,1-1.231-10.952Z" transform="translate(-473.464 -283.03)" fill="#ffb7b7"/>
    <path id="Path_94" data-name="Path 94" d="M548.234,540.065h-5.5l-2.618-21.229h8.124Z" transform="translate(-270.055 -259.417)" fill="#ffb7b7"/>
    <path id="Path_95" data-name="Path 95" d="M789.509,728.146H771.762v-.224a6.908,6.908,0,0,1,6.907-6.907h10.84Z" transform="translate(-509.926 -442.164)" fill="#2f2e41"/>
    <path id="Path_96" data-name="Path 96" d="M612.737,540.065h-5.5l-2.618-21.229h8.123Z" transform="translate(-302.306 -259.417)" fill="#ffb7b7"/>
    <path id="Path_97" data-name="Path 97" d="M854.01,728.146H836.264v-.224a6.908,6.908,0,0,1,6.907-6.907h10.84Z" transform="translate(-542.177 -442.164)" fill="#2f2e41"/>
    <path id="Path_98" data-name="Path 98" d="M539.255,314.729l-8.107,56.157,2.02,59.167,12.175.969,3.807-53.062,9.691-29.587,5.7,42.176.234,39.5,12.572.969,4.384-83.05L578.5,311.854Z" transform="translate(-265.573 -155.927)" fill="#2f2e41"/>
    <ellipse id="Ellipse_61" data-name="Ellipse 61" cx="12.826" cy="12.826" rx="12.826" ry="12.826" transform="translate(284.306 57.963)" fill="#ffb7b7"/>
    <path id="Path_99" data-name="Path 99" d="M812.383,342.044l-14.159,71.333s23.839,6.842,34.283.526,5.764-25.815,5.764-25.815l-1.913-33.179-3.534-8.39-3-6.926Z" transform="translate(-523.157 -251.453)" fill="#cbcbcb"/>
    <path id="Path_100" data-name="Path 100" d="M795.052,393.746l4.891-52.019-3.912,2.856-13.677,4.442-.936,36.623-9.567,48.16s6.839,13.344,15.314-8.732Z" transform="translate(-509.971 -252.521)" fill="#2f2e41"/>
    <path id="Path_101" data-name="Path 101" d="M519.268,198.484l-6.582-5.477-14.794,32.136-16.508-3.616-.78,9.75,23.918,9.466,16.3-22.691Z" transform="translate(-240.301 -96.503)" fill="#2f2e41"/>
    <path id="Path_102" data-name="Path 102" d="M609.144,217.341l1.843-42.336,6.784,5.254,12.116,3.377-1.776,33.706,2.556,52.3-12.7,4.023-3.565-33Z" transform="translate(-304.571 -87.502)" fill="#2f2e41"/>
    <path id="Path_103" data-name="Path 103" d="M858.772,471.788a5.519,5.519,0,0,1,7.344-4.206l12.448-15.158,3.014,9.737-12.283,12.9a5.549,5.549,0,0,1-10.524-3.274Z" transform="translate(-553.384 -307.869)" fill="#ffb7b7"/>
    <path id="Path_104" data-name="Path 104" d="M631.68,196.965l8.112-4.7L660.2,232.572,640.3,260.2l-11.35-9.075,13.782-17.973-12.561-19.3Z" transform="translate(-314.475 -96.133)" fill="#2f2e41"/>
    <path id="Path_105" data-name="Path 105" d="M840.548,277.262l.622-1.251-3.129-1.554s-3.451-5.616-9.7-4.038-9.055,2.523-9.055,2.523l-3.121,1.57,1.566,1.558-2.81.945,1.877.933-2.184,1.255,1.176,6.436s1.953-4.881,5.707-3.016,10.622-.964,10.622-.964l5.966,11.546s1.231-4.048,3.425-2.968C841.514,290.236,847.12,281.308,840.548,277.262Z" transform="translate(-531.354 -216.727)" fill="#2f2e41"/>
    <path id="Path_106" data-name="Path 106" d="M479.993,322.019h-.082L432.875,342.1l-64.355,27.48a2.076,2.076,0,0,1-1.59.008l-66.395-27.545-48.191-19.994-.074-.033h-.082a2.871,2.871,0,0,0-2.868,2.868V449.442a2.871,2.871,0,0,0,2.868,2.868h227.8a2.871,2.871,0,0,0,2.868-2.868V324.887A2.871,2.871,0,0,0,479.993,322.019Z" transform="translate(-248.706 -242.667)" fill="#fff"/>
    <path id="Path_107" data-name="Path 107" d="M482.041,243.487a.409.409,0,0,1-.234-.073L368.5,164.5a2.055,2.055,0,0,0-2.347,0l-112.5,78.909a.41.41,0,0,1-.471-.671l112.5-78.909a2.877,2.877,0,0,1,3.286-.005l113.312,78.913a.41.41,0,0,1-.234.746Z" transform="translate(-250.55 -163.315)" fill="#3f3d56"/>
    <path id="Path_108" data-name="Path 108" d="M19.063,86.378,126.414,6.817,234.58,92.039,131.945,152.882l-55.722-12.7Z" transform="translate(-9.531 -3.409)" fill="#e6e6e6"/>
    <path id="Path_109" data-name="Path 109" d="M335.367,532.466H282.333a2.478,2.478,0,1,1-.007-4.955h53.042a2.478,2.478,0,1,1,.007,4.955Z" transform="translate(-263.972 -345.412)" fill="#38ba99"/>
    <path id="Path_110" data-name="Path 110" d="M301.361,511.161H282.333a2.478,2.478,0,0,1-.007-4.955h19.035a2.478,2.478,0,1,1,.007,4.955Z" transform="translate(-263.972 -334.76)" fill="#38ba99"/>
    <path id="Path_111" data-name="Path 111" d="M417.494,301.322a3.1,3.1,0,0,1-1.176-.23l-66.207-27.471V187.631a2.871,2.871,0,0,1,2.868-2.868H479.993a2.871,2.871,0,0,1,2.868,2.868v86.049l-.124.053-64.031,27.345A3.12,3.12,0,0,1,417.494,301.322Z" transform="translate(-299.101 -174.039)" fill="#38ba99" opacity="0.5"/>
    <path id="Path_112" data-name="Path 112" d="M478.763,322.019h-.082L431.646,342.1l-64.355,27.48a2.076,2.076,0,0,1-1.59.008l-66.395-27.545-48.191-19.994-.074-.033h-.082a2.871,2.871,0,0,0-2.868,2.868V449.442a2.871,2.871,0,0,0,2.868,2.868h227.8a2.871,2.871,0,0,0,2.868-2.868V324.887a2.871,2.871,0,0,0-2.868-2.868Zm2.049,127.423a2.049,2.049,0,0,1-2.049,2.049h-227.8a2.049,2.049,0,0,1-2.049-2.049V324.887a2.053,2.053,0,0,1,1.971-2.049l48.425,20.093,66.08,27.418a2.917,2.917,0,0,0,2.229-.012l64.031-27.345,47.2-20.154a2.055,2.055,0,0,1,1.967,2.049Z" transform="translate(-248.091 -242.667)" fill="#3f3d56"/>
    <path id="Path_113" data-name="Path 113" d="M415.915,242.494H370.846a3.278,3.278,0,0,1,0-6.556h45.069a3.278,3.278,0,1,1,0,6.556Z" transform="translate(-307.83 -199.627)" fill="#fff"/>
    <path id="Path_114" data-name="Path 114" d="M392.561,214.633H370.846a3.278,3.278,0,0,1,0-6.556h21.715a3.278,3.278,0,1,1,0,6.556Z" transform="translate(-307.83 -185.696)" fill="#fff"/>
    <path id="Path_115" data-name="Path 115" d="M478.166,308.049H409.333a3.278,3.278,0,0,1,0-6.556h68.833a3.278,3.278,0,0,1,0,6.556Z" transform="translate(-327.073 -232.404)" fill="#fff"/>
    <path id="Path_116" data-name="Path 116" d="M478.166,338.368H409.333a3.278,3.278,0,0,1,0-6.556h68.833a3.278,3.278,0,0,1,0,6.556Z" transform="translate(-327.073 -247.564)" fill="#fff"/>
    <path id="Path_117" data-name="Path 117" d="M818.909,735.315h-131.5a.5.5,0,1,1,0-1h131.5a.5.5,0,1,1,0,1Z" transform="translate(-467.5 -448.814)" fill="#cbcbcb"/>
    <path id="Path_118" data-name="Path 118" d="M442.909,735.315h-48.5a.5.5,0,1,1,0-1h48.5a.5.5,0,1,1,0,1Z" transform="translate(-321 -448.814)" fill="#cbcbcb"/>
    <path id="Path_461-2" data-name="Path 461" d="M426.671,672.127a10.787,10.787,0,0,0,9.1-5.4c2.332-4.153,1.621-9.277.841-13.976l-2.3-13.9-3.99,5.748c-2.87,4.134-5.794,8.386-7.019,13.267s-.4,10.6,3.333,13.973" transform="translate(-335.429 -401.086)" fill="#e6e6e6"/>
    <path id="Path_462-2" data-name="Path 462" d="M437.194,707.727a55.77,55.77,0,0,1-5.262-11.746,20.206,20.206,0,0,1-.1-11.287,17.624,17.624,0,0,1,2.783-5.43c.323-.426.965.1.644.522a16.753,16.753,0,0,0-3.376,9.821,26.823,26.823,0,0,0,2.754,11.325c.973,2.152,2.1,4.23,3.225,6.306a.427.427,0,0,1-.091.579.417.417,0,0,1-.579-.091Z" transform="translate(-339.583 -421.21)" fill="#f2f2f2"/>
  </g>
</svg>
