<svg id="Group_16" data-name="Group 16" xmlns="http://www.w3.org/2000/svg" width="219.865" height="205.628" viewBox="0 0 219.865 205.628">
  <path id="Path_46" data-name="Path 46" d="M827.107,604.415s27.2,1.406,20.865,9.969-22.983-5.023-22.983-5.023Z" transform="translate(-651.992 -458.318)" fill="#ffb8b8"/>
  <path id="Path_47" data-name="Path 47" d="M631.209,313.448l5.536,1.384s3.23,9.689,5.536,18.455,6.921,35.064,6.921,35.064l35.769,25.068-4.266,9.544-47.651-18.78-10.612-41.668Z" transform="translate(-506.22 -248.909)" fill="#575a89"/>
  <path id="Path_48" data-name="Path 48" d="M437.871,291.607l-2.064,43.212,4.306,12.847-12.613-9.25Z" transform="translate(-307.673 -209.87)" opacity="0.2"/>
  <path id="Path_49" data-name="Path 49" d="M534.449,633.01s6,16.148,6.921,27.221,1.845,19.839,1.845,19.839H515.072l-5.536-8.3v8.3H476.778s-9.227-29.989-5.536-33.68S510,627.012,510,627.012Z" transform="translate(-396.772 -474.582)" fill="#2f2e41"/>
  <rect id="Rectangle_58" data-name="Rectangle 58" width="162.853" height="0.561" transform="translate(28.45 205.068)" fill="#3f3d56"/>
  <circle id="Ellipse_41" data-name="Ellipse 41" cx="17.532" cy="17.532" r="17.532" transform="translate(84.85 11.943)" fill="#ffb8b8"/>
  <path id="Path_50" data-name="Path 50" d="M521.774,214.688l-1.384,20.3,17.532,23.53,8.766-22.146s-7.843-5.075-3.23-15.687Z" transform="translate(-432.772 -177.831)" fill="#ffb8b8"/>
  <path id="Path_51" data-name="Path 51" d="M501.908,371.209c0,4.154-11.534,10.612-11.534,10.612v2.307l-4.614,2.307-10.15-20.3-2.767,22.144s-20.3,3.232-26.76,0-9.69-1.844-18.917-5.073,3.692-46.6,3.692-46.6l-9.227-66.9,20.159-10.079,1.062-.533,2.772-.51,4.249-.785,14.2,9.6,1.144,6,.7,3.692,3.689-4.154,2.786-9.163,19.823,11.01-5.536,44.29S501.908,367.057,501.908,371.209Z" transform="translate(-361.695 -208.859)" fill="#575a89"/>
  <path id="Path_52" data-name="Path 52" d="M454.226,713.428s21.223,17.071,11.073,20.3S449.612,716.2,449.612,716.2Z" transform="translate(-381.833 -536.775)" fill="#ffb8b8"/>
  <path id="Path_53" data-name="Path 53" d="M390.7,301.2l-4.614-.923s-6.921,3.691-7.382,11.073-6.459,59.056-6.459,59.056l19.378,52.135,15.687-6L392.089,367.64l11.534-42.446Z" transform="translate(-326.155 -239.432)" fill="#575a89"/>
  <circle id="Ellipse_42" data-name="Ellipse 42" cx="1.682" cy="1.682" r="1.682" transform="translate(102.729 72.487)" fill="#2f2e41"/>
  <circle id="Ellipse_43" data-name="Ellipse 43" cx="1.682" cy="1.682" r="1.682" transform="translate(102.729 83.418)" fill="#2f2e41"/>
  <circle id="Ellipse_44" data-name="Ellipse 44" cx="1.682" cy="1.682" r="1.682" transform="translate(112.259 155.455)" fill="#2f2e41"/>
  <path id="Path_54" data-name="Path 54" d="M508.472,94.711l-3.241-1.3s6.776-7.46,16.2-6.812l-2.652-2.919s6.482-2.595,12.374,4.217c3.1,3.581,6.682,7.79,8.916,12.531h3.471l-1.449,3.19,5.07,3.19-5.2-.573a17.826,17.826,0,0,1,.141,5.291A6.845,6.845,0,0,1,539.6,116h0s-4.019-8.32-4.019-9.617v3.244s-3.241-2.919-3.241-4.866l-1.768,2.271H518.784l1.768-2.919-6.776.973,2.652-3.568-10.492,14.734S499.928,99.576,508.472,94.711Z" transform="translate(-420.892 -83.197)" fill="#2f2e41"/>
  <circle id="Ellipse_45" data-name="Ellipse 45" cx="28.03" cy="28.03" r="28.03" transform="translate(163.805 79.477)" fill="#3f3d56"/>
  <circle id="Ellipse_46" data-name="Ellipse 46" cx="24.106" cy="24.106" r="24.106" transform="translate(167.73 83.401)" opacity="0.1"/>
  <path id="Path_55" data-name="Path 55" d="M876.065,444.261v-3.508a8.146,8.146,0,0,1-4.678-1.529l.734-2.327a7.478,7.478,0,0,0,4.4,1.494,3.373,3.373,0,0,0,3.639-3.4c0-1.911-1.193-3.092-3.455-4.134-3.119-1.389-5.045-2.987-5.045-6.01a5.462,5.462,0,0,1,4.617-5.593v-3.509h1.9v3.37a7.44,7.44,0,0,1,3.975,1.216l-.765,2.293a6.758,6.758,0,0,0-3.853-1.181,2.936,2.936,0,0,0-3.241,2.987c0,1.806,1.131,2.709,3.792,3.96,3.149,1.459,4.74,3.265,4.74,6.357a5.813,5.813,0,0,1-4.832,5.905v3.613Z" transform="translate(-685.385 -322.53)" fill="#38ba99"/>
  <path id="Path_56" data-name="Path 56" d="M250.005,501.223l11.211,35.018-8.97-36.439Z" transform="translate(-179.929 -359.709)" opacity="0.2"/>
  <path id="Path_57" data-name="Path 57" d="M232.62,311.729H225.5a1.171,1.171,0,0,1-1.17-1.17V300.33a1.171,1.171,0,0,1,1.17-1.17h7.116a1.171,1.171,0,0,1,1.17,1.17v10.229a1.171,1.171,0,0,1-1.17,1.17ZM225.5,299.721a.61.61,0,0,0-.609.609v10.229a.61.61,0,0,0,.609.609h7.116a.61.61,0,0,0,.609-.609V300.33a.61.61,0,0,0-.609-.609Z" transform="translate(-219.7 -238.626)" fill="#3f3d56"/>
  <path id="Path_58" data-name="Path 58" d="M279.875,283.18h-6.426a1.516,1.516,0,0,1-1.515-1.515V261.008a1.516,1.516,0,0,1,1.515-1.515h6.426a1.516,1.516,0,0,1,1.515,1.515v20.658A1.516,1.516,0,0,1,279.875,283.18Zm-6.426-23.126a.955.955,0,0,0-.954.954v20.658a.955.955,0,0,0,.954.954h6.426a.955.955,0,0,0,.954-.954V261.008a.955.955,0,0,0-.954-.954Z" transform="translate(-253.958 -210.078)" fill="#3f3d56"/>
  <path id="Path_59" data-name="Path 59" d="M327.227,256.916H321.3a1.765,1.765,0,0,1-1.763-1.763v-30.39A1.765,1.765,0,0,1,321.3,223h5.93a1.765,1.765,0,0,1,1.763,1.763v30.39a1.765,1.765,0,0,1-1.763,1.763Zm-5.93-33.355a1.2,1.2,0,0,0-1.2,1.2v30.39a1.2,1.2,0,0,0,1.2,1.2h5.93a1.2,1.2,0,0,0,1.2-1.2v-30.39a1.2,1.2,0,0,0-1.2-1.2Z" transform="translate(-288.216 -183.813)" fill="#3f3d56"/>
  <rect id="Rectangle_59" data-name="Rectangle 59" width="5.337" height="8.672" transform="translate(6.694 62.482)" fill="#38ba99"/>
  <rect id="Rectangle_60" data-name="Rectangle 60" width="5.337" height="19.68" transform="translate(20.036 51.475)" fill="#38ba99"/>
  <rect id="Rectangle_61" data-name="Rectangle 61" width="5.337" height="29.909" transform="translate(33.378 41.246)" fill="#38ba99"/>
  <path id="Path_60" data-name="Path 60" d="M834.361,130.4h-37.28a.28.28,0,0,1-.28-.28V92.28a.28.28,0,1,1,.561,0v37.56h37a.28.28,0,1,1,0,.561Z" transform="translate(-631.706 -89.532)" fill="#3f3d56"/>
  <path id="Path_61" data-name="Path 61" d="M252.369,243.567H208.081a.28.28,0,0,1-.28-.28V199.28a.28.28,0,1,1,.561,0v43.726h44.007a.28.28,0,1,1,0,.561Z" transform="translate(-207.801 -166.541)" fill="#3f3d56"/>
  <path id="Path_62" data-name="Path 62" d="M822.425,184.2h-7.116a1.171,1.171,0,0,1-1.17-1.17V172.8a1.171,1.171,0,0,1,1.17-1.17h7.116a1.171,1.171,0,0,1,1.17,1.17v10.229A1.171,1.171,0,0,1,822.425,184.2Zm-7.116-12.008a.61.61,0,0,0-.609.609v10.229a.61.61,0,0,0,.609.609h7.116a.61.61,0,0,0,.609-.609V172.8a.61.61,0,0,0-.609-.609Z" transform="translate(-644.184 -146.841)" fill="#3f3d56"/>
  <path id="Path_63" data-name="Path 63" d="M875.141,161.434h-6.549a1.455,1.455,0,0,1-1.453-1.453V141.453A1.455,1.455,0,0,1,868.592,140h6.549a1.455,1.455,0,0,1,1.453,1.453V159.98A1.455,1.455,0,0,1,875.141,161.434Zm-6.549-20.873a.893.893,0,0,0-.892.892V159.98a.893.893,0,0,0,.892.893h6.549a.893.893,0,0,0,.892-.893V141.453a.893.893,0,0,0-.892-.892Z" transform="translate(-682.328 -124.078)" fill="#3f3d56"/>
  <rect id="Rectangle_62" data-name="Rectangle 62" width="5.337" height="8.672" transform="translate(171.886 26.832)" fill="#38ba99"/>
  <rect id="Rectangle_63" data-name="Rectangle 63" width="5.337" height="16.78" transform="translate(186.87 18.249)" fill="#38ba99"/>
  <circle id="Ellipse_47" data-name="Ellipse 47" cx="2.523" cy="2.523" r="2.523" transform="translate(172.103 16.763)" fill="#38ba99"/>
  <circle id="Ellipse_48" data-name="Ellipse 48" cx="2.523" cy="2.523" r="2.523" transform="translate(186.959 7.233)" fill="#38ba99"/>
</svg>
