<svg xmlns="http://www.w3.org/2000/svg" width="385.974" height="404.285" viewBox="0 0 385.974 404.285">
  <path id="Path_78" data-name="Path 78" d="M86.689,31.8C135.6-.2,147.949.276,195.638.276s52.343-5.4,81.809,31.525S313.5,97.409,313.5,147.96s9.194,57.007-36.053,86.044S180.2,264.111,132.513,264.111s-12.7,3.852-45.824-30.106S0,178.83,0,128.279,37.78,63.8,86.689,31.8Z" transform="translate(385.974 132.121) rotate(120)" fill="#efc01a" opacity="0.2"/>
  <path id="Path_77" data-name="Path 77" d="M18.522,6.795c48.91-32,61.26-31.525,108.949-31.525s52.343-5.4,81.809,31.525S245.333,72.4,245.333,122.954,254.527,179.96,209.28,209,112.036,239.1,64.346,239.1,51.651,242.956,18.522,209s-86.689-55.175-86.689-105.725S-30.387,38.8,18.522,6.795Z" transform="translate(92.008 111.39)" fill="#5cc9dd" opacity="0.2"/>
</svg>
