<svg xmlns="http://www.w3.org/2000/svg" width="255.922" height="33.363" viewBox="0 0 255.922 33.363">
  <g id="subtitleIcon" transform="translate(0 0.5)">
    <path id="Icon_awesome-handshake" data-name="Icon awesome-handshake" d="M38.81,4.5H31.141a2.964,2.964,0,0,0-1.928.7l-8.776,7.533c-.009.008-.018.025-.027.033a3.184,3.184,0,0,0-.187,4.687,3.907,3.907,0,0,0,5.009.226c.009-.008.027-.008.036-.017L32.4,11.539a1.5,1.5,0,0,1,2.018.084,1.28,1.28,0,0,1-.089,1.892l-2.33,2,13,9.893a6.262,6.262,0,0,1,.705.644V9.857l-4.875-4.57A2.934,2.934,0,0,0,38.81,4.5Zm9.758,5.374v18.74a2.769,2.769,0,0,0,2.857,2.678h5.714V9.874Zm4.285,18.74a1.342,1.342,0,1,1,1.428-1.339A1.39,1.39,0,0,1,52.853,28.614ZM0,31.284H5.714a2.769,2.769,0,0,0,2.857-2.678V9.874H0Zm4.285-5.348a1.342,1.342,0,1,1,0,2.678,1.342,1.342,0,1,1,0-2.678ZM43.2,27.492,29.873,17.348l-2.678,2.3a6.743,6.743,0,0,1-9.08-.368,5.768,5.768,0,0,1,.393-8.512l7.3-6.269H18.329a2.951,2.951,0,0,0-2.018.787l-4.884,4.57V28.6h1.634l8.08,6.855a5.976,5.976,0,0,0,8.035-.778l.018-.017,1.6,1.3a3.471,3.471,0,0,0,4.669-.452l2.8-3.231.482.368a2.984,2.984,0,0,0,4.018-.393l.848-.979a2.571,2.571,0,0,0-.411-3.775Z" transform="translate(99.9 -4.5)" fill="none" stroke="#5cc9dd" stroke-width="1"/>
    <line id="Line_5" data-name="Line 5" x1="71.424" transform="translate(0 16.666)" fill="none" stroke="#5cc9dd" stroke-width="1" stroke-dasharray="10"/>
    <line id="Line_6" data-name="Line 6" x2="72" transform="translate(183.922 17)" fill="none" stroke="#5cc9dd" stroke-width="1" stroke-dasharray="10"/>
  </g>
</svg>
